HIERARCHY
ROOT Hips
{
  OFFSET 33.8866 95.6011 26.7354
  CHANNELS 6 Xposition Yposition Zposition Zrotation Xrotation Yrotation
  JOINT spine
  {
    OFFSET 0 8.13249 0.467659
    CHANNELS 3 Zrotation Xrotation Yrotation
    JOINT spine1
    {
      OFFSET 0 10.3498 0
      CHANNELS 3 Zrotation Xrotation Yrotation
      JOINT spine2
      {
        OFFSET 0 9.91699 0
        CHANNELS 3 Zrotation Xrotation Yrotation
        JOINT Neck
        {
          OFFSET 0 25.461 1.2139
          CHANNELS 3 Zrotation Xrotation Yrotation
          JOINT Head
          {
            OFFSET 0 7.69245 0
            CHANNELS 3 Zrotation Xrotation Yrotation
            End Site
            {
              OFFSET 0 18.62 -6.14063
            }
          }
        }
        JOINT RightShoulder
        {
          OFFSET -4.17575 10.7096 -0.581445
          CHANNELS 3 Zrotation Xrotation Yrotation
          JOINT RightArm
          {
            OFFSET 0 14.0466 0
            CHANNELS 3 Zrotation Xrotation Yrotation
            JOINT RightArmRoll
            {
              OFFSET 0 7.09098 0
              CHANNELS 3 Zrotation Xrotation Yrotation
              JOINT RightForeArm
              {
                OFFSET 0 20.6535 0
                CHANNELS 3 Zrotation Xrotation Yrotation
                JOINT RightForeArmRoll
                {
                  OFFSET 0 7.95718 0
                  CHANNELS 3 Zrotation Xrotation Yrotation
                  JOINT RightHand
                  {
                    OFFSET 0 15.9683 0
                    CHANNELS 3 Zrotation Xrotation Yrotation
                    End Site
                    {
                      OFFSET 0 0 0
                    }
                  }
                }
              }
            }
          }
        }
        JOINT LeftShoulder
        {
          OFFSET 4.17575 10.7096 -0.581445
          CHANNELS 3 Zrotation Xrotation Yrotation
          JOINT LeftArm
          {
            OFFSET 0 14.0466 0
            CHANNELS 3 Zrotation Xrotation Yrotation
            JOINT LeftArmRoll
            {
              OFFSET 0 7.09098 0
              CHANNELS 3 Zrotation Xrotation Yrotation
              JOINT LeftForeArm
              {
                OFFSET 0 20.6535 0
                CHANNELS 3 Zrotation Xrotation Yrotation
                JOINT LeftForeArmRoll
                {
                  OFFSET 0 7.95718 0
                  CHANNELS 3 Zrotation Xrotation Yrotation
                  JOINT LeftHand
                  {
                    OFFSET 0 15.9683 0
                    CHANNELS 3 Zrotation Xrotation Yrotation
                    End Site
                    {
                      OFFSET 0 0 0
                    }
                  }
                }
              }
            }
          }
        }
      }
    }
  }
  JOINT RightUpLeg
  {
    OFFSET -7.20834 -1.32182 -1.10884
    CHANNELS 3 Zrotation Xrotation Yrotation
    JOINT RightUpLegRoll
    {
      OFFSET 0 18.7238 0
      CHANNELS 3 Zrotation Xrotation Yrotation
      JOINT RightLeg
      {
        OFFSET 0 -23.1866 0
        CHANNELS 3 Zrotation Xrotation Yrotation
        JOINT RightLegRoll
        {
          OFFSET 0 23.2624 0
          CHANNELS 3 Zrotation Xrotation Yrotation
          JOINT RightFoot
          {
            OFFSET 0 19.3621 0
            CHANNELS 3 Zrotation Xrotation Yrotation
            JOINT RightToeBase
            {
              OFFSET 0 16.1857 0
              CHANNELS 3 Zrotation Xrotation Yrotation
              End Site
              {
                OFFSET 0.00686052 7.83862 -0.903522
              }
            }
          }
        }
      }
    }
  }
  JOINT LeftUpLeg
  {
    OFFSET 7.20834 -1.32182 -1.10884
    CHANNELS 3 Zrotation Xrotation Yrotation
    JOINT LeftUpLegRoll
    {
      OFFSET 0 18.7239 0
      CHANNELS 3 Zrotation Xrotation Yrotation
      JOINT LeftLeg
      {
        OFFSET 0 23.1865 0
        CHANNELS 3 Zrotation Xrotation Yrotation
        JOINT LeftLegRoll
        {
          OFFSET 0 23.4775 0
          CHANNELS 3 Zrotation Xrotation Yrotation
          JOINT LeftFoot
          {
            OFFSET 0 19.147 0
            CHANNELS 3 Zrotation Xrotation Yrotation
            JOINT LeftToeBase
            {
              OFFSET 0 16.1857 0
              CHANNELS 3 Zrotation Xrotation Yrotation
              End Site
              {
                OFFSET -0.0307459 7.83863 -0.903522
              }
            }
          }
        }
      }
    }
  }
}
MOTION
Frames: 6
Frame Time: 0.00208333
51.8668 96.2323 11.1911 -0.129011 -4.10969 1.65665 0.52468 -0.67512 -0.0290738 1.06687 2.63909 -0.105049 1.06951 4.284 -0.123061 -5.05373 13.8901 0.172071 3.04394 -7.12651 -0.717668 58.3415 -9.01583 -5.59476 111.903 19.1177 15.8716 -4.98505e-006 -6.04806e-007 -6.48571e-006 8.79649 4.24172 -1.05746 -3.47372e-006 -3.64616e-006 -2.99998 8.02905 -4.95145 0.697661 -62.626 -6.811 4.38329 -108.255 17.6946 -7.24175 -1.19319e-006 6.21434e-007 4.93255e-006 -9.53409 0.0715629 0.876568 4.54043e-006 2.53498e-007 3.01312 -8.02899 -4.95146 -0.69767 173.62 2.02182 3.86995 -180 7.01548e-015 178.929 177.922 12.2518 179.771 -3.40134e-006 -2.10687e-006 0.172254 -19.0732 69.1329 20.5127 8.13633 25.2386 -3.48273 -173.442 -0.333077 -1.36125 4.54188e-006 -4.6773e-006 -1.01166 -0.794561 -11.1097 0.471623 1.73375e-006 -1.6257e-006 -0.121581 18.672 70.406 -21.6232 -8.12784 25.2374 3.47847 
51.8553 96.2328 11.1954 -0.128454 -4.11047 1.6728 0.525441 -0.675737 -0.028791 1.06718 2.6401 -0.105577 1.06982 4.28501 -0.123599 -5.06719 13.8943 0.177175 3.05138 -7.12291 -0.715179 58.3395 -9.00758 -5.58949 111.899 19.0783 15.8231 -4.98505e-006 -6.04806e-007 -6.48571e-006 8.84044 4.31153 -1.06664 -3.47372e-006 -3.64616e-006 -2.99998 8.02905 -4.95145 0.697661 -62.6231 -6.79612 4.37455 -108.257 17.6901 -7.25064 -1.19319e-006 6.21434e-007 4.93255e-006 -9.53028 0.0715637 0.876611 4.54043e-006 2.53498e-007 3.01312 -8.02899 -4.95146 -0.69767 173.626 2.02178 3.87245 -180 7.01548e-015 178.929 177.914 12.2633 179.773 -3.40134e-006 -2.10687e-006 0.173066 -19.0857 69.14 20.5188 8.13633 25.2386 -3.48273 -173.432 -0.325533 -1.36483 4.54188e-006 -4.6773e-006 -1.01166 -0.791396 -11.1194 0.472109 1.73375e-006 -1.6257e-006 -0.121575 18.6689 70.4066 -21.6249 -8.12784 25.2374 3.47847 
51.8384 96.2353 11.2014 -0.12799 -4.11133 1.6887 0.52623 -0.676393 -0.0285011 1.06752 2.64115 -0.106093 1.07015 4.28606 -0.124124 -5.08164 13.8985 0.182274 3.06057 -7.11901 -0.71268 58.3372 -8.99899 -5.584 111.894 19.0394 15.7759 -4.98505e-006 -6.04806e-007 -6.48571e-006 8.88371 4.37908 -1.07548 -3.47372e-006 -3.64616e-006 -2.99998 8.02905 -4.95145 0.697661 -62.6201 -6.78096 4.36565 -108.259 17.6853 -7.25977 -1.19319e-006 6.21434e-007 4.93255e-006 -9.52643 0.0715645 0.876645 4.54043e-006 2.53498e-007 3.01312 -8.02899 -4.95146 -0.69767 173.631 2.02191 3.87532 -180 7.01548e-015 178.929 177.905 12.2751 179.775 -3.40134e-006 -2.10687e-006 0.173897 -19.0984 69.1472 20.5251 8.13633 25.2386 -3.48273 -173.423 -0.317818 -1.36851 4.54188e-006 -4.6773e-006 -1.01167 -0.788272 -11.1296 0.47258 1.73375e-006 -1.6257e-006 -0.121579 18.666 70.4075 -21.6269 -8.12784 25.2374 3.47847 
51.8287 96.2332 11.2018 -0.127591 -4.11224 1.70442 0.52704 -0.677076 -0.0282064 1.06788 2.64223 -0.1066 1.0705 4.28714 -0.124642 -5.09677 13.9025 0.187369 3.07097 -7.11489 -0.710174 58.3347 -8.99016 -5.57836 111.889 19.0007 15.7295 -4.98505e-006 -6.04806e-007 -6.48571e-006 8.92651 4.44505 -1.0841 -3.47372e-006 -3.64616e-006 -2.99998 8.02905 -4.95145 0.697661 -62.6169 -6.7656 4.35662 -108.261 17.6802 -7.26905 -1.19319e-006 6.21434e-007 4.93255e-006 -9.52255 0.0715653 0.876671 4.54043e-006 2.53498e-007 3.01312 -8.02899 -4.95146 -0.69767 173.637 2.02216 3.87843 -180 7.01548e-015 178.929 177.896 12.2872 179.778 -3.40134e-006 -2.10687e-006 0.17474 -19.1113 69.1546 20.5315 8.13633 25.2386 -3.48273 -173.413 -0.309983 -1.37227 4.54188e-006 -4.6773e-006 -1.01168 -0.785176 -11.1401 0.47304 1.73375e-006 -1.6257e-006 -0.121589 18.6632 70.4086 -21.6292 -8.12784 25.2374 3.47847 
51.8075 96.2266 11.1883 -0.127228 -4.11319 1.72004 0.52786 -0.677775 -0.0279088 1.06824 2.64333 -0.107102 1.07086 4.28824 -0.125154 -5.11231 13.9065 0.192462 3.08207 -7.11065 -0.707664 58.3321 -8.98119 -5.57263 111.884 18.9622 15.6836 -4.98505e-006 -6.04806e-007 -6.48571e-006 8.96904 4.51012 -1.09259 -3.47372e-006 -3.64616e-006 -2.99998 8.02905 -4.95145 0.697661 -62.6136 -6.75013 4.34753 -108.263 17.675 -7.27843 -1.19319e-006 6.21434e-007 4.93255e-006 -9.51866 0.0715662 0.876693 4.54043e-006 2.53498e-007 3.01312 -8.02899 -4.95146 -0.69767 173.642 2.02247 3.8817 -180 7.01548e-015 178.929 177.887 12.2994 179.78 -3.40134e-006 -2.10687e-006 0.17559 -19.1242 69.1619 20.5378 8.13633 25.2386 -3.48273 -173.403 -0.302081 -1.37607 4.54188e-006 -4.6773e-006 -1.01171 -0.782097 -11.1509 0.473494 1.73375e-006 -1.6257e-006 -0.121602 18.6605 70.4097 -21.6316 -8.12784 25.2374 3.47847 
51.7988 96.227 11.1926 -0.126875 -4.11414 1.73563 0.528684 -0.678477 -0.0276106 1.06861 2.64443 -0.107603 1.07122 4.28934 -0.125666 -5.12794 13.9104 0.197554 3.09334 -7.10639 -0.705153 58.3296 -8.97218 -5.56687 111.879 18.9237 15.6378 -4.98505e-006 -6.04806e-007 -6.48571e-006 9.01153 4.57496 -1.10105 -3.47372e-006 -3.64616e-006 -2.99998 8.02905 -4.95145 0.697661 -62.6104 -6.73463 4.33842 -108.265 17.6697 -7.28783 -1.19319e-006 6.21434e-007 4.93255e-006 -9.51476 0.071567 0.876715 4.54043e-006 2.53498e-007 3.01312 -8.02899 -4.95146 -0.69767 173.647 2.0228 3.885 -180 7.01548e-015 178.929 177.878 12.3116 179.782 -3.40134e-006 -2.10687e-006 0.176442 -19.1372 69.1693 20.5442 8.13633 25.2386 -3.48273 -173.393 -0.294162 -1.37988 4.54188e-006 -4.6773e-006 -1.01173 -0.779022 -11.1618 0.473947 1.73375e-006 -1.6257e-006 -0.121617 18.6578 70.4109 -21.634 -8.12784 25.2374 3.47847 
